<svg xmlns="http://www.w3.org/2000/svg" style="display: none;">
    <symbol id="tip-notice" viewBox="0 0 512 512" preserveAspectRatio="xMidYMid meet">
        <path d="M504 256c0 136.967-111.033 248-248 248S8 392.967 8 256 119.033 8 256 8s248 111.033 248 248zM227.314 387.314l184-184c6.248-6.248 6.248-16.379 0-22.627l-22.627-22.627c-6.248-6.249-16.379-6.249-22.628 0L216 308.118l-70.059-70.059c-6.248-6.248-16.379-6.248-22.628 0l-22.627 22.627c-6.248 6.248-6.248 16.379 0 22.627l104 104c6.249 6.249 16.379 6.249 22.628.001z"/>
    </symbol>
    <symbol id="note-notice" viewBox="0 0 512 512" preserveAspectRatio="xMidYMid meet">
        <path d="M504 256c0 136.997-111.043 248-248 248S8 392.997 8 256C8 119.083 119.043 8 256 8s248 111.083 248 248zm-248 50c-25.405 0-46 20.595-46 46s20.595 46 46 46 46-20.595 46-46-20.595-46-46-46zm-43.673-165.346l7.418 136c.347 6.364 5.609 11.346 11.982 11.346h48.546c6.373 0 11.635-4.982 11.982-11.346l7.418-136c.375-6.874-5.098-12.654-11.982-12.654h-63.383c-6.884 0-12.356 5.78-11.981 12.654z"/>
    </symbol>
    <symbol id="warning-notice" viewBox="0 0 576 512" preserveAspectRatio="xMidYMid meet">
        <path d="M569.517 440.013C587.975 472.007 564.806 512 527.94 512H48.054c-36.937 0-59.999-40.055-41.577-71.987L246.423 23.985c18.467-32.009 64.72-31.951 83.154 0l239.94 416.028zM288 354c-25.405 0-46 20.595-46 46s20.595 46 46 46 46-20.595 46-46-20.595-46-46-46zm-43.673-165.346l7.418 136c.347 6.364 5.609 11.346 11.982 11.346h48.546c6.373 0 11.635-4.982 11.982-11.346l7.418-136c.375-6.874-5.098-12.654-11.982-12.654h-63.383c-6.884 0-12.356 5.78-11.981 12.654z"/>
    </symbol>
    <symbol id="info-notice" viewBox="0 0 512 512" preserveAspectRatio="xMidYMid meet">
        <path d="M256 8C119.043 8 8 119.083 8 256c0 136.997 111.043 248 248 248s248-111.003 248-248C504 119.083 392.957 8 256 8zm0 110c23.196 0 42 18.804 42 42s-18.804 42-42 42-42-18.804-42-42 18.804-42 42-42zm56 254c0 6.627-5.373 12-12 12h-88c-6.627 0-12-5.373-12-12v-24c0-6.627 5.373-12 12-12h12v-64h-12c-6.627 0-12-5.373-12-12v-24c0-6.627 5.373-12 12-12h64c6.627 0 12 5.373 12 12v100h12c6.627 0 12 5.373 12 12v24z"/>
    </symbol>
    <!-- Plus sign -->
    <!-- <symbol id="more_resources-notice" viewBox="0 0 512 512" preserveAspectRatio="xMidYMid meet">
        <path d="M256 8C119 8 8 119 8 256s111 248 248 248 248-111 248-248S393 8 256 8zm144 276c0 6.6-5.4 12-12 12h-92v92c0 6.6-5.4 12-12 12h-56c-6.6 0-12-5.4-12-12v-92h-92c-6.6 0-12-5.4-12-12v-56c0-6.6 5.4-12 12-12h92v-92c0-6.6 5.4-12 12-12h56c6.6 0 12 5.4 12 12v92h92c6.6 0 12 5.4 12 12v56z"/>
    </symbol> -->
    <!-- Shuffle -->
    <!-- <symbol id="more_resources-notice" viewBox="0 0 512 512" preserveAspectRatio="xMidYMid meet">
        <path d="M504.971 359.029c9.373 9.373 9.373 24.569 0 33.941l-80 79.984c-15.01 15.01-40.971 4.49-40.971-16.971V416h-58.785a12.004 12.004 0 0 1-8.773-3.812l-70.556-75.596 53.333-57.143L352 336h32v-39.981c0-21.438 25.943-31.998 40.971-16.971l80 79.981zM12 176h84l52.781 56.551 53.333-57.143-70.556-75.596A11.999 11.999 0 0 0 122.785 96H12c-6.627 0-12 5.373-12 12v56c0 6.627 5.373 12 12 12zm372 0v39.984c0 21.46 25.961 31.98 40.971 16.971l80-79.984c9.373-9.373 9.373-24.569 0-33.941l-80-79.981C409.943 24.021 384 34.582 384 56.019V96h-58.785a12.004 12.004 0 0 0-8.773 3.812L96 336H12c-6.627 0-12 5.373-12 12v56c0 6.627 5.373 12 12 12h110.785c3.326 0 6.503-1.381 8.773-3.812L352 176h32z"/>
    </symbol> -->
    <!-- Skip sign -->
    <!-- <symbol id="more_resources-notice" viewBox="0 0 512 512" preserveAspectRatio="xMidYMid meet">
        <path d="M384 44v424c0 6.6-5.4 12-12 12h-48c-6.6 0-12-5.4-12-12V291.6l-195.5 181C95.9 489.7 64 475.4 64 448V64c0-27.4 31.9-41.7 52.5-24.6L312 219.3V44c0-6.6 5.4-12 12-12h48c6.6 0 12 5.4 12 12z"/>
    </symbol> -->
    <!-- Microscope sign -->
    <!-- <symbol id="more_resources-notice" viewBox="0 0 512 512" preserveAspectRatio="xMidYMid meet">
        <path d="M160 320h12v16c0 8.84 7.16 16 16 16h40c8.84 0 16-7.16 16-16v-16h12c17.67 0 32-14.33 32-32V64c0-17.67-14.33-32-32-32V16c0-8.84-7.16-16-16-16h-64c-8.84 0-16 7.16-16 16v16c-17.67 0-32 14.33-32 32v224c0 17.67 14.33 32 32 32zm304 128h-1.29C493.24 413.99 512 369.2 512 320c0-105.88-86.12-192-192-192v64c70.58 0 128 57.42 128 128s-57.42 128-128 128H48c-26.51 0-48 21.49-48 48 0 8.84 7.16 16 16 16h480c8.84 0 16-7.16 16-16 0-26.51-21.49-48-48-48zm-360-32h208c4.42 0 8-3.58 8-8v-16c0-4.42-3.58-8-8-8H104c-4.42 0-8 3.58-8 8v16c0 4.42 3.58 8 8 8z"/>
    </symbol> -->
    <!-- Mitten -->
    <symbol id="more_resources-notice" viewBox="0 0 512 512" preserveAspectRatio="xMidYMid meet">
        <path d="M368 416H48c-8.8 0-16 7.2-16 16v64c0 8.8 7.2 16 16 16h320c8.8 0 16-7.2 16-16v-64c0-8.8-7.2-16-16-16zm57-209.1c-27.2-22.6-67.5-19-90.1 8.2l-20.9 25-29.6-128.4c-18-77.5-95.4-125.9-172.8-108C34.2 21.6-14.2 98.9 3.7 176.4L51.6 384h309l72.5-87c22.7-27.2 19-67.5-8.1-90.1z"/>
    </symbol>
</svg>